<?xml version="1.0" encoding="UTF-8"?>
<!DOCTYPE svg PUBLIC "-//W3C//DTD SVG 1.1//EN" "http://www.w3.org/Graphics/SVG/1.1/DTD/svg11.dtd">
<!-- Creator: CorelDRAW 2019 (64-Bit) -->
<svg xmlns="http://www.w3.org/2000/svg" xml:space="preserve" width="66.4104mm" height="76.9936mm" version="1.1" style="shape-rendering:geometricPrecision; text-rendering:geometricPrecision; image-rendering:optimizeQuality; fill-rule:evenodd; clip-rule:evenodd"
viewBox="0 0 66.4104 76.9936"
 xmlns:xlink="http://www.w3.org/1999/xlink"
 xmlns:xodm="http://www.corel.com/coreldraw/odm/2003">
 <defs>
  <style type="text/css">
   <![CDATA[
    .fil0 {fill:#F4EFE1;fill-rule:nonzero}
   ]]>
  </style>
 </defs>
 <g id="Layer_x0020_1">
  <metadata id="CorelCorpID_0Corel-Layer"/>
  <path class="fil0" d="M0.805 62.638c2.1821,-0.1911 3.4879,-1.9449 3.4879,-4.376l0 -6.9804c0,-0.5383 -0.3041,-0.8335 -0.8764,-0.8335l-0.5544 0c-0.5546,0 -0.8586,0.2952 -0.8586,0.8335l0 6.8069c0,1.2676 -0.3935,2.1531 -1.3416,2.2748 -0.4471,0.0345 -0.6617,0.3125 -0.6617,0.8507l0 0.6078c0,0.5557 0.2861,0.8508 0.8048,0.8162zm63.6528 14.3866c0.9563,0 1.688,-0.7382 1.688,-1.7073 0,-0.9756 -0.7252,-1.7138 -1.688,-1.7138 -0.9435,0 -1.6881,0.751 -1.6881,1.7138 0,0.9628 0.7382,1.7073 1.6881,1.7073zm0 -0.3145c-0.7445,0 -1.3414,-0.6097 -1.3414,-1.3928 0,-0.7959 0.584,-1.3928 1.3414,-1.3928 0.7574,0 1.3478,0.6033 1.3478,1.3928 0,0.7766 -0.5969,1.3928 -1.3478,1.3928zm-0.4429 -0.5712c0.0963,0 0.1541,-0.0514 0.1541,-0.1476l0 -0.3467c0,-0.0642 0.0321,-0.0963 0.0898,-0.0963l0.0771 0c0.0449,0 0.0834,0.0193 0.1091,0.0578l0.2888 0.4364c0.045,0.0707 0.1027,0.0964 0.1798,0.0964l0.0898 0c0.1155,0 0.1476,-0.0771 0.0834,-0.1798l-0.2503 -0.3722c-0.0385,-0.0578 -0.0193,-0.1028 0.0385,-0.1413 0.1605,-0.0963 0.2439,-0.2439 0.2439,-0.4556 0,-0.3274 -0.2182,-0.5264 -0.5584,-0.5264l-0.5841 0c-0.0963,0 -0.1477,0.0578 -0.1477,0.154l0 1.3737c0,0.0962 0.0514,0.1476 0.1477,0.1476l0.0385 0zm0.2504 -0.8922c-0.0642,0 -0.0963,-0.0385 -0.0963,-0.0963l0 -0.2567c0,-0.0642 0.0321,-0.1027 0.0963,-0.1027l0.2246 0c0.1733,0 0.2632,0.077 0.2632,0.2182 0,0.1476 -0.0899,0.2375 -0.2632,0.2375l-0.2246 0zm-63.2407 -69.596c0,1.355 0.4974,2.594 1.3199,3.5439 -0.4407,-0.2919 -0.9546,-0.4813 -1.5078,-0.5359 -0.0741,-0.01 -0.1395,0.0475 -0.1423,0.1222l-0.5541 16.0224c-0.0187,0.6524 0.0044,1.3074 0.0679,1.9628l1.9328 18.426c0.0479,0.4326 0.4137,0.7619 0.8475,0.7619l3.6587 0c0.5072,0 0.9026,-0.4392 0.8473,-0.9423l-0.4202 -3.98c-0.0438,-0.475 0.6471,-0.6029 0.7626,-0.1431l1.1018 4.1195c0.1506,0.5514 0.6523,0.9363 1.223,0.9412l10.2734 0c1.0332,-0.0049 1.6325,-1.1814 1.025,-2.0117l-5.5212 -7.5994c-0.7498,-1.0419 -0.8382,-2.4206 -0.2292,-3.5425l12.5291 -22.9182c0.0367,-0.0674 0.0161,-0.1428 -0.0512,-0.1696 -0.9015,-0.4109 -2.2146,-0.7534 -2.8199,0.3219l-2.8696 5.2606c-0.1916,0.3597 -0.7436,0.2063 -0.7317,-0.2027l0.1586 -3.9187 -0.048 -6.4072c-0.0057,-0.6924 -0.5624,-1.2508 -1.2519,-1.2586 -0.6894,-0.0078 -1.2585,0.5377 -1.2849,1.2298l-0.1881 5.9159 -0.4482 6.8193c-0.029,0.5084 -0.7982,0.4649 -0.7744,-0.0414l0.3272 -6.9513 -0.0241 -7.9401c0.0024,-0.6933 -0.5497,-1.2538 -1.2382,-1.2664 -0.6884,-0.0126 -1.2607,0.5274 -1.2936,1.2192l-0.5784 14.3585c-0.0157,0.5045 -0.786,0.4805 -0.7748,-0.0266l0.1538 -7.0572 -0.0431 -8.0527c0.0005,-0.6894 -0.5522,-1.2482 -1.2402,-1.2597 -0.6878,-0.0115 -1.259,0.5284 -1.2916,1.2146l-0.1279 3.1781c-0.3898,-2.6088 -2.6397,-4.6096 -5.357,-4.6096 -2.9918,0 -5.417,2.4254 -5.417,5.4171zm2.1382 4.3118c0.9102,0.6932 2.0464,1.1052 3.2788,1.1052 2.5657,0 4.7147,-1.784 5.2747,-4.179l-0.0936 2.3253c-0.3022,2.983 -0.3112,5.7384 -0.7591,8.6123 -0.1163,0.745 -0.3308,1.7286 -0.5453,2.4496 -0.6474,2.1665 -3.5706,2.5785 -4.7878,0.6563 -0.3306,-0.5888 -0.309,-0.561 -0.5226,-1.2018 -0.4884,-1.4648 -0.8005,-5.529 -1.0495,-7.2036l-0.1653 -1.0877c-0.0886,-0.5506 -0.3102,-1.0536 -0.6303,-1.4766zm57.0305 66.8189c0.5545,0 0.8585,-0.2951 0.8585,-0.8333l0 -10.4882c0,-0.5382 -0.304,-0.8334 -0.8585,-0.8334l-0.5545 0c-0.5723,0 -0.8765,0.2952 -0.8765,0.8334l0 10.4882c0,0.5382 0.3042,0.8333 0.8765,0.8333l0.5545 0zm-6.7968 0.2432c2.7188,0 4.2212,-1.8406 4.2212,-4.671l0 -6.8937c0,-0.5382 -0.304,-0.8334 -0.8765,-0.8334l-0.5185 0c-0.5545,0 -0.8586,0.2952 -0.8586,0.8334l0 6.9111c0,1.5454 -0.7334,2.5526 -1.9676,2.5526 -1.2162,-0.0174 -1.9854,-0.9899 -1.9854,-2.5526l0 -6.9111c0,-0.5382 -0.304,-0.8334 -0.8584,-0.8334l-0.5545 0c-0.5544,0 -0.8586,0.2952 -0.8586,0.8334l0 6.6854c0,2.917 1.5919,4.8793 4.2569,4.8793zm-9.5154 0c2.5577,0 4.1139,-1.7191 4.1139,-4.1153l0 -1.7712c0,-0.5557 -0.3042,-0.8508 -0.8587,-0.8508l-2.5398 0c-0.5544,0 -0.8585,0.2951 -0.8585,0.8508l0 0.3126c0,0.4861 0.2506,0.8334 0.7332,0.8334l0.8408 0c0.304,0 0.447,0.1563 0.447,0.4167l0 0.5037c-0.0177,1.0418 -0.8406,1.7365 -1.8779,1.7191 -1.27,0 -2.0032,-0.9377 -2.0032,-2.5179l0 -3.3859c0,-1.5802 0.7332,-2.5353 2.0032,-2.5353 0.9658,0 1.7527,0.6772 1.8423,1.6669 0.0179,0.4342 0.3219,0.6773 0.8763,0.6773l0.5187 0c0.5724,0 0.8766,-0.2605 0.8586,-0.6946 -0.1073,-2.292 -1.6813,-3.7333 -4.0959,-3.7507 -2.7008,-0.0173 -4.2928,1.9622 -4.2928,4.8447l0 2.9692c0,2.8999 1.592,4.8273 4.2928,4.8273zm-12.6198 -0.2432c0.5186,0 0.8407,-0.243 0.9658,-0.7118l0.4651 -1.5107c0.0714,-0.2431 0.2324,-0.3473 0.4828,-0.3473l3.2018 0c0.2324,0 0.3934,0.1042 0.4648,0.3473l0.4652 1.5107c0.1252,0.4688 0.4649,0.7118 0.9658,0.7118l0.4473 0c0.6079,0 0.9121,-0.3473 0.7331,-0.9375l-3.1121 -10.5054c-0.1251,-0.4689 -0.4471,-0.712 -0.948,-0.712l-1.2341 0c-0.5009,0 -0.8229,0.2431 -0.9658,0.712l-3.1123 10.5054c-0.1609,0.5902 0.1253,0.9375 0.7333,0.9375l0.4473 0zm2.5755 -4.6189c-0.304,0 -0.4471,-0.1736 -0.3578,-0.4686l1.0912 -3.7682c0.0715,-0.3299 0.322,-0.3299 0.4113,0l1.091 3.7682c0.0716,0.295 -0.0715,0.4686 -0.3577,0.4686l-1.878 0zm-13.9266 4.6016c0.5545,0 0.8585,-0.2952 0.8585,-0.8334l0 -5.7996c0,-0.4343 0.34,-0.4864 0.4829,-0.1044l1.735 4.5149c0.1252,0.3125 0.3577,0.4686 0.7155,0.4686l0.3935 0c0.3577,0 0.5902,-0.1735 0.7155,-0.486l1.717 -4.4975c0.143,-0.382 0.4829,-0.3299 0.4829,0.1044l0 5.7996c0,0.5382 0.3041,0.8334 0.8586,0.8334l0.4292 0c0.5723,0 0.8765,-0.2952 0.8765,-0.8334l0 -10.4708c0,-0.5555 -0.3042,-0.8508 -0.8765,-0.8508l-0.8585 0c-0.4829,0 -0.8049,0.2258 -0.9837,0.6598l-2.2716 5.8866c-0.1431,0.382 -0.4113,0.382 -0.5544,0l-2.2716 -5.8866c-0.179,-0.434 -0.5009,-0.6598 -0.9838,-0.6598l-0.8763 0c-0.5723,0 -0.8765,0.2953 -0.8765,0.8508l0 10.4708c0,0.5382 0.3042,0.8334 0.8765,0.8334l0.4113 0zm-6.6358 0.2605c2.7008,0 4.2033,-1.8406 4.2033,-4.671l0 -3.2818c0,-2.8478 -1.5025,-4.6884 -4.2033,-4.6884 -2.665,0 -4.2748,1.9622 -4.2748,4.8794l0 2.8825c0,2.917 1.6098,4.8793 4.2748,4.8793zm0 -2.101c-1.2342,-0.0174 -1.9852,-0.9899 -1.9852,-2.5526l0 -3.3167c0,-1.5626 0.751,-2.5523 1.9852,-2.5523 1.1805,-0.0175 1.9496,0.9897 1.9496,2.5523l0 3.3167c0,1.5454 -0.7691,2.5526 -1.9496,2.5526zm-9.2123 2.101c2.4862,0 4.096,-1.5106 4.096,-3.768 0,-1.8928 -0.9658,-2.7784 -3.2554,-3.4208l-0.8941 -0.2431c-1.1805,-0.3126 -1.574,-0.764 -1.574,-1.667 0,-0.9029 0.6259,-1.4412 1.6455,-1.4412 0.7691,0 1.3056,0.3126 1.556,0.9203 0.2147,0.4862 0.4114,0.7466 0.93,0.7466l0.4472 0c0.5724,0 0.9303,-0.3298 0.8229,-0.9029 -0.3756,-1.858 -1.6992,-2.8651 -3.7741,-2.8651 -2.3609,0 -3.917,1.4587 -3.917,3.6465 0,1.8405 1.0552,2.9519 3.1838,3.5076l0.93 0.2257c1.1447,0.2953 1.6097,0.7988 1.6097,1.5629 0,0.9723 -0.6796,1.6149 -1.7885,1.6149 -0.9301,0 -1.574,-0.3994 -1.8423,-1.1461 -0.1969,-0.4863 -0.4293,-0.7467 -0.948,-0.7467l-0.4649 0c-0.5725,0 -0.9125,0.33 -0.8051,0.9029 0.3935,1.9623 1.8424,3.0735 4.0423,3.0735zm20.993 -14.4214c0.5186,0 0.8406,-0.2432 0.9658,-0.7119l0.465 -1.5108c0.0716,-0.243 0.2326,-0.3473 0.4829,-0.3473l3.2016 0c0.2326,0 0.3935,0.1043 0.465,0.3473l0.4652 1.5108c0.1251,0.4687 0.465,0.7119 0.9658,0.7119l0.4472 0c0.608,0 0.9121,-0.3473 0.7333,-0.9377l-3.1123 -10.5054c-0.125,-0.4688 -0.4471,-0.712 -0.9479,-0.712l-1.2342 0c-0.5009,0 -0.8227,0.2432 -0.9658,0.712l-3.1122 10.5054c-0.161,0.5904 0.1251,0.9377 0.7333,0.9377l0.4473 0zm2.5755 -4.6189c-0.3041,0 -0.4472,-0.1737 -0.3577,-0.4689l1.0911 -3.7679c0.0714,-0.33 0.3219,-0.33 0.4113,0l1.0911 3.7679c0.0715,0.2952 -0.0717,0.4689 -0.3579,0.4689l-1.8779 0zm-11.1393 4.6189c0.5545,0 0.8584,-0.2952 0.8584,-0.8336l0 -3.1775c0,-0.2779 0.1611,-0.4341 0.4473,-0.4341l0.6438 0c0.2685,0 0.4472,0.104 0.5366,0.3298l1.6992 3.4729c0.179,0.4341 0.5187,0.6425 1.0016,0.6425l0.5367 0c0.6439,0 0.9121,-0.3993 0.6618,-0.9898l-1.7171 -3.5423c-0.1073,-0.2605 -0.0179,-0.4341 0.2326,-0.573 1.1984,-0.5557 1.8602,-1.6844 1.8602,-3.195 0,-2.4484 -1.5204,-3.855 -4.2033,-3.855l-3.1122 0c-0.5723,0 -0.8766,0.2952 -0.8766,0.8335l0 10.488c0,0.5384 0.3043,0.8336 0.8766,0.8336l0.5544 0zm1.3057 -6.5289c-0.2862,0 -0.4473,-0.1562 -0.4473,-0.4515l0 -2.6568c0,-0.2779 0.1611,-0.434 0.4473,-0.434l1.109 0c1.3951,0 2.1104,0.5556 2.1104,1.7711 0,1.1981 -0.7153,1.7712 -2.1104,1.7712l-1.109 0zm-8.1025 6.772c2.7187,0 4.2213,-1.8408 4.2213,-4.6711l0 -6.8936c0,-0.5383 -0.3042,-0.8335 -0.8765,-0.8335l-0.5186 0c-0.5547,0 -0.8586,0.2952 -0.8586,0.8335l0 6.9112c0,1.5453 -0.7334,2.5525 -1.9676,2.5525 -1.2163,-0.0174 -1.9854,-0.9899 -1.9854,-2.5525l0 -6.9112c0,-0.5383 -0.304,-0.8335 -0.8585,-0.8335l-0.5546 0c-0.5542,0 -0.8584,0.2952 -0.8584,0.8335l0 6.6854c0,2.9171 1.5919,4.8793 4.2569,4.8793z"/>
 </g>
</svg>
